<?xml version="1.0" encoding="UTF-8"?>
<svg xmlns="http://www.w3.org/2000/svg" xmlns:xlink="http://www.w3.org/1999/xlink" width="38px" height="38px" viewBox="0 0 38 38" version="1.1">
<g id="surface1">
<path style=" stroke:none;fill-rule:nonzero;fill:rgb(80.000001%,52.549022%,10.980392%);fill-opacity:1;" d="M 23.621094 13.9375 C 24.808594 15.015625 25.546875 16.417969 25.847656 17.925781 C 25.859375 17.976562 25.871094 18.03125 25.882812 18.082031 C 26.066406 19.164062 25.980469 20.355469 25.628906 21.394531 C 25.613281 21.4375 25.613281 21.4375 25.597656 21.484375 C 25.242188 22.515625 24.65625 23.457031 23.859375 24.246094 C 23.8125 24.300781 23.761719 24.355469 23.710938 24.410156 C 22.582031 25.609375 20.878906 26.332031 19.222656 26.601562 C 19.191406 26.605469 19.160156 26.609375 19.128906 26.613281 C 17.085938 26.929688 14.933594 26.433594 13.246094 25.328125 C 11.539062 24.183594 10.316406 22.484375 9.96875 20.535156 C 9.6875 18.832031 9.945312 17.179688 10.824219 15.65625 C 10.839844 15.628906 10.855469 15.605469 10.867188 15.578125 C 11.175781 15.035156 11.566406 14.570312 12.019531 14.125 C 12.042969 14.101562 12.0625 14.082031 12.085938 14.058594 C 14.855469 11.292969 19.652344 11.007812 23.621094 13.9375 Z M 23.621094 13.9375 "/>
<path style=" stroke:none;fill-rule:nonzero;fill:rgb(80.000001%,52.549022%,10.980392%);fill-opacity:1;" d="M 17.738281 4.328125 C 17.871094 4.328125 18 4.328125 18.132812 4.324219 C 18.933594 4.324219 19.726562 4.382812 20.519531 4.507812 C 20.574219 4.515625 20.628906 4.523438 20.683594 4.535156 C 23.207031 4.949219 25.570312 5.910156 27.617188 7.351562 C 27.644531 7.371094 27.671875 7.390625 27.703125 7.410156 C 28.046875 7.65625 28.367188 7.914062 28.683594 8.191406 C 28.78125 8.277344 28.882812 8.363281 28.984375 8.445312 C 29.371094 8.757812 29.726562 9.101562 30.046875 9.476562 C 30.128906 9.574219 30.214844 9.664062 30.304688 9.753906 C 30.910156 10.386719 31.40625 11.121094 31.859375 11.855469 C 31.878906 11.886719 31.898438 11.917969 31.917969 11.953125 C 32.980469 13.667969 33.574219 15.554688 33.847656 17.511719 C 33.851562 17.554688 33.859375 17.597656 33.863281 17.640625 C 34.210938 20.257812 33.675781 22.972656 32.519531 25.359375 C 32.496094 25.414062 32.496094 25.414062 32.46875 25.46875 C 32.074219 26.292969 31.585938 27.066406 31.019531 27.796875 C 31 27.820312 30.984375 27.84375 30.964844 27.867188 C 30.730469 28.167969 30.480469 28.460938 30.222656 28.746094 C 30.1875 28.789062 30.152344 28.828125 30.117188 28.871094 C 29.824219 29.203125 29.507812 29.507812 29.183594 29.8125 C 29.160156 29.835938 29.140625 29.855469 29.117188 29.875 C 28.824219 30.152344 28.515625 30.40625 28.191406 30.648438 C 28.132812 30.691406 28.078125 30.738281 28.019531 30.78125 C 27.558594 31.144531 27.066406 31.460938 26.554688 31.761719 C 26.527344 31.78125 26.496094 31.796875 26.464844 31.816406 C 25.957031 32.121094 25.417969 32.375 24.875 32.628906 C 24.84375 32.644531 24.8125 32.660156 24.777344 32.679688 C 21.140625 34.402344 16.671875 34.511719 12.824219 33.382812 C 10.90625 32.796875 9.066406 31.871094 7.546875 30.628906 C 7.484375 30.578125 7.425781 30.53125 7.363281 30.488281 C 7.054688 30.257812 6.773438 30.011719 6.496094 29.75 C 6.421875 29.683594 6.351562 29.617188 6.28125 29.550781 C 5.992188 29.28125 5.730469 29.003906 5.480469 28.707031 C 5.441406 28.664062 5.402344 28.621094 5.363281 28.578125 C 4.839844 28.007812 4.394531 27.390625 3.992188 26.738281 C 3.9375 26.648438 3.882812 26.5625 3.828125 26.476562 C 2.492188 24.335938 1.800781 21.816406 1.804688 19.34375 C 1.804688 19.3125 1.804688 19.28125 1.804688 19.246094 C 1.808594 16.410156 2.652344 13.628906 4.285156 11.234375 C 4.460938 11.289062 4.558594 11.359375 4.683594 11.484375 C 4.667969 11.507812 4.65625 11.53125 4.640625 11.554688 C 3.402344 13.554688 2.558594 15.652344 2.34375 17.96875 C 2.335938 18.046875 2.335938 18.046875 2.328125 18.125 C 2.039062 21.777344 3.253906 25.570312 5.8125 28.375 C 5.90625 28.472656 6 28.570312 6.097656 28.664062 C 6.144531 28.714844 6.195312 28.769531 6.242188 28.820312 C 6.71875 29.332031 6.71875 29.332031 7.246094 29.792969 C 7.351562 29.878906 7.453125 29.964844 7.554688 30.054688 C 8.285156 30.679688 9.125 31.222656 9.984375 31.679688 C 10.023438 31.699219 10.058594 31.71875 10.097656 31.742188 C 13.71875 33.667969 18.023438 34.148438 22.039062 33.136719 C 22.292969 33.070312 22.546875 32.996094 22.800781 32.917969 C 22.835938 32.910156 22.867188 32.898438 22.90625 32.886719 C 24.273438 32.476562 25.546875 31.855469 26.734375 31.101562 C 26.777344 31.074219 26.777344 31.074219 26.820312 31.046875 C 27.417969 30.664062 27.976562 30.234375 28.503906 29.769531 C 28.617188 29.671875 28.730469 29.574219 28.847656 29.480469 C 28.996094 29.359375 29.125 29.230469 29.25 29.089844 C 29.339844 28.996094 29.429688 28.90625 29.519531 28.816406 C 29.859375 28.484375 30.15625 28.125 30.445312 27.757812 C 30.46875 27.726562 30.492188 27.695312 30.515625 27.667969 C 30.824219 27.269531 31.113281 26.863281 31.371094 26.433594 C 31.394531 26.402344 31.414062 26.367188 31.433594 26.332031 C 32.535156 24.515625 33.210938 22.527344 33.40625 20.445312 C 33.410156 20.398438 33.414062 20.355469 33.417969 20.304688 C 33.640625 17.882812 33.144531 15.375 32.035156 13.175781 C 32.019531 13.148438 32.007812 13.117188 31.992188 13.089844 C 31.894531 12.894531 31.789062 12.703125 31.679688 12.515625 C 31.664062 12.484375 31.644531 12.449219 31.625 12.417969 C 31.359375 11.949219 31.082031 11.5 30.753906 11.070312 C 30.734375 11.042969 30.714844 11.019531 30.695312 10.992188 C 29.933594 9.988281 29.039062 8.980469 27.992188 8.21875 C 27.875 8.132812 27.761719 8.039062 27.648438 7.949219 C 26.324219 6.921875 24.757812 6.148438 23.140625 5.613281 C 23.035156 5.582031 22.929688 5.542969 22.824219 5.507812 C 22.03125 5.242188 21.199219 5.070312 20.371094 4.945312 C 20.328125 4.9375 20.289062 4.929688 20.25 4.925781 C 19.464844 4.816406 18.6875 4.777344 17.894531 4.777344 C 17.851562 4.777344 17.804688 4.777344 17.757812 4.777344 C 14.964844 4.785156 12.101562 5.476562 9.734375 6.894531 C 9.632812 6.9375 9.632812 6.9375 9.535156 6.933594 C 9.410156 6.878906 9.351562 6.796875 9.277344 6.691406 C 9.34375 6.507812 9.5 6.464844 9.671875 6.378906 C 9.726562 6.351562 9.726562 6.351562 9.78125 6.324219 C 9.855469 6.285156 9.929688 6.246094 10.007812 6.210938 C 10.109375 6.160156 10.210938 6.105469 10.3125 6.054688 C 12.554688 4.894531 15.1875 4.316406 17.738281 4.328125 Z M 17.738281 4.328125 "/>
<path style=" stroke:none;fill-rule:nonzero;fill:rgb(80.000001%,52.549022%,10.980392%);fill-opacity:1;" d="M 8.578125 6.371094 C 9.246094 6.863281 9.703125 7.511719 9.851562 8.300781 C 9.914062 9.234375 9.769531 10.050781 9.097656 10.777344 C 9.070312 10.804688 9.042969 10.832031 9.015625 10.863281 C 8.992188 10.886719 8.96875 10.914062 8.941406 10.941406 C 8.410156 11.488281 7.566406 11.769531 6.792969 11.820312 C 5.980469 11.84375 5.242188 11.597656 4.59375 11.152344 C 4.554688 11.125 4.554688 11.125 4.515625 11.097656 C 3.921875 10.675781 3.566406 9.953125 3.429688 9.28125 C 3.324219 8.5 3.492188 7.722656 3.976562 7.070312 C 4.058594 6.96875 4.148438 6.871094 4.242188 6.773438 C 4.269531 6.746094 4.296875 6.714844 4.324219 6.6875 C 5.414062 5.582031 7.308594 5.546875 8.578125 6.371094 Z M 8.578125 6.371094 "/>
<path style=" stroke:none;fill-rule:nonzero;fill:rgb(80.000001%,52.549022%,10.980392%);fill-opacity:1;" d="M 20.898438 8.300781 C 20.9375 8.3125 20.976562 8.320312 21.019531 8.328125 C 22.566406 8.691406 24.007812 9.378906 25.273438 10.285156 C 25.300781 10.304688 25.328125 10.324219 25.359375 10.34375 C 25.523438 10.460938 25.6875 10.578125 25.847656 10.699219 C 25.800781 10.820312 25.773438 10.855469 25.644531 10.914062 C 25.609375 10.925781 25.574219 10.933594 25.539062 10.945312 C 25.5 10.914062 25.460938 10.886719 25.421875 10.855469 C 24.253906 9.957031 22.917969 9.261719 21.472656 8.839844 C 21.421875 8.824219 21.421875 8.824219 21.367188 8.804688 C 20.257812 8.46875 19.09375 8.335938 17.929688 8.332031 C 17.894531 8.332031 17.863281 8.332031 17.824219 8.332031 C 14.917969 8.335938 12.039062 9.367188 9.929688 11.253906 C 9.808594 11.359375 9.808594 11.359375 9.691406 11.445312 C 9.597656 11.515625 9.523438 11.585938 9.449219 11.671875 C 9.324219 11.804688 9.199219 11.933594 9.070312 12.0625 C 7.128906 14.058594 6.121094 16.855469 6.234375 19.539062 C 6.390625 22.074219 7.355469 24.542969 9.25 26.402344 C 9.34375 26.496094 9.433594 26.589844 9.523438 26.6875 C 10.222656 27.441406 11.179688 28.054688 12.105469 28.542969 C 12.140625 28.558594 12.175781 28.578125 12.210938 28.59375 C 13.949219 29.5 15.890625 29.964844 17.875 29.957031 C 17.914062 29.957031 17.953125 29.957031 17.992188 29.957031 C 19.605469 29.953125 21.1875 29.660156 22.660156 29.035156 C 22.75 28.996094 22.84375 28.960938 22.9375 28.921875 C 23.785156 28.574219 24.5625 28.097656 25.273438 27.550781 C 25.300781 27.53125 25.328125 27.511719 25.355469 27.488281 C 25.972656 27.019531 26.554688 26.492188 27.042969 25.898438 C 27.074219 25.859375 27.109375 25.820312 27.144531 25.777344 C 28.390625 24.316406 29.164062 22.535156 29.472656 20.695312 C 29.476562 20.664062 29.484375 20.636719 29.488281 20.605469 C 29.664062 19.566406 29.625 18.421875 29.429688 17.390625 C 29.417969 17.328125 29.417969 17.328125 29.40625 17.265625 C 29.175781 16.078125 28.75 14.878906 28.085938 13.835938 C 28.015625 13.714844 28.015625 13.714844 28.035156 13.617188 C 28.121094 13.53125 28.207031 13.507812 28.324219 13.464844 C 29.160156 14.898438 29.738281 16.378906 29.914062 18.007812 C 29.917969 18.042969 29.921875 18.078125 29.925781 18.113281 C 29.960938 18.453125 29.96875 18.789062 29.96875 19.125 C 29.96875 19.167969 29.96875 19.167969 29.96875 19.214844 C 29.964844 21.949219 28.855469 24.648438 26.847656 26.648438 C 26.738281 26.757812 26.632812 26.871094 26.527344 26.984375 C 26.386719 27.128906 26.242188 27.261719 26.085938 27.386719 C 26.003906 27.449219 25.925781 27.511719 25.847656 27.578125 C 25.289062 28.039062 24.683594 28.4375 24.039062 28.789062 C 24.007812 28.804688 23.976562 28.824219 23.945312 28.839844 C 22.128906 29.84375 20.035156 30.324219 17.933594 30.328125 C 17.902344 30.328125 17.867188 30.328125 17.835938 30.328125 C 14.96875 30.324219 12.148438 29.359375 9.984375 27.589844 C 9.960938 27.570312 9.9375 27.550781 9.914062 27.53125 C 9.757812 27.402344 9.605469 27.273438 9.457031 27.136719 C 9.433594 27.117188 9.410156 27.09375 9.382812 27.074219 C 9.058594 26.78125 8.761719 26.480469 8.484375 26.144531 C 8.449219 26.105469 8.414062 26.066406 8.378906 26.023438 C 6.875 24.253906 5.878906 21.929688 5.867188 19.660156 C 5.867188 19.621094 5.867188 19.585938 5.867188 19.542969 C 5.867188 19.421875 5.867188 19.300781 5.867188 19.179688 C 5.867188 19.136719 5.867188 19.09375 5.867188 19.050781 C 5.867188 18.445312 5.886719 17.859375 6.007812 17.265625 C 6.023438 17.1875 6.039062 17.109375 6.050781 17.03125 C 6.242188 16.054688 6.597656 15.097656 7.070312 14.207031 C 7.085938 14.179688 7.101562 14.148438 7.117188 14.121094 C 7.828125 12.757812 8.925781 11.464844 10.207031 10.53125 C 10.253906 10.496094 10.304688 10.460938 10.351562 10.421875 C 13.292969 8.207031 17.246094 7.460938 20.898438 8.300781 Z M 20.898438 8.300781 "/>
<path style=" stroke:none;fill-rule:nonzero;fill:rgb(80.000001%,52.549022%,10.980392%);fill-opacity:1;" d="M 28.164062 10.996094 C 28.535156 11.359375 28.679688 11.773438 28.675781 12.265625 C 28.617188 12.71875 28.40625 13.074219 28.027344 13.359375 C 27.605469 13.628906 27.183594 13.679688 26.6875 13.628906 C 26.257812 13.542969 25.894531 13.324219 25.640625 12.984375 C 25.402344 12.578125 25.335938 12.132812 25.453125 11.6875 C 25.597656 11.285156 25.886719 10.976562 26.28125 10.773438 C 26.933594 10.488281 27.59375 10.609375 28.164062 10.996094 Z M 28.164062 10.996094 "/>
</g>
</svg>
